<?xml version="1.0" standalone="no"?>
<!DOCTYPE svg PUBLIC "-//W3C//DTD SVG 20010904//EN"
 "http://www.w3.org/TR/2001/REC-SVG-20010904/DTD/svg10.dtd">
<svg version="1.0" xmlns="http://www.w3.org/2000/svg"
 width="512.000000pt" height="512.000000pt" viewBox="0 0 512.000000 512.000000"
 preserveAspectRatio="xMidYMid meet">

<g transform="translate(0.000000,512.000000) scale(0.100000,-0.100000)"
fill="#000000" stroke="none">
<path d="M1440 4191 c-400 -85 -721 -417 -789 -816 -6 -33 -36 -409 -67 -835
-64 -890 -65 -944 -15 -1090 111 -328 404 -540 746 -540 228 0 395 70 560 235
85 84 96 100 175 255 93 181 150 251 246 302 151 81 395 78 540 -7 89 -52 142
-119 233 -294 97 -187 174 -281 299 -362 147 -96 293 -135 476 -126 407 19
725 337 743 742 5 115 -97 1601 -118 1718 -73 408 -390 735 -793 818 -86 18
-150 19 -1121 18 -951 0 -1036 -2 -1115 -18z m2204 -321 c242 -62 439 -261
501 -505 19 -79 128 -1580 122 -1695 -7 -144 -68 -260 -182 -347 -91 -69 -151
-88 -286 -88 l-116 0 -85 42 c-118 59 -167 115 -257 291 -105 209 -177 294
-322 388 -144 93 -304 131 -513 121 -142 -7 -237 -31 -346 -88 -170 -88 -263
-190 -377 -414 -94 -183 -149 -245 -270 -303 -76 -36 -81 -37 -193 -37 -133 0
-192 18 -282 86 -114 85 -178 205 -185 349 -6 114 103 1616 122 1695 21 84 85
210 142 277 91 108 224 194 354 228 71 18 118 19 1085 19 974 1 1014 0 1088
-19z"/>
<path d="M1690 3342 c-313 -82 -455 -456 -275 -726 112 -168 320 -250 509
-201 223 58 366 240 366 465 0 316 -293 542 -600 462z m208 -329 c47 -34 72
-81 72 -133 0 -119 -128 -196 -230 -139 -149 84 -86 310 83 296 27 -2 60 -13
75 -24z"/>
<path d="M3250 3349 c-14 -6 -36 -20 -48 -32 -43 -40 -52 -70 -52 -176 l0 -99
-109 -4 c-92 -2 -114 -6 -138 -24 -98 -73 -98 -195 0 -268 24 -18 46 -22 138
-24 l109 -4 0 -102 c0 -90 3 -107 23 -136 51 -75 130 -99 204 -61 67 34 87 78
91 198 l4 103 95 0 c74 0 102 4 132 20 113 57 113 223 0 280 -30 16 -58 20
-132 20 l-95 0 -4 103 c-3 85 -7 108 -27 140 -39 64 -124 93 -191 66z"/>
</g>
</svg>
